<svg xmlns="http://www.w3.org/2000/svg" viewBox="0 0 1024 1024"><radialGradient id="a" cx="331.884" cy="693.06" r="3.282" gradientTransform="matrix(0 372.565 372.565 0 -257698.547 -123767.484)" gradientUnits="userSpaceOnUse"><stop offset="0" stop-color="#ff78a1"/><stop offset=".513" stop-color="#fe375c"/><stop offset="1" stop-color="red"/></radialGradient><path fill="url(#a)" d="M-.7 512c0-282.8 229.2-512 512-512s512 229.2 512 512-229.2 512-512 512c-282.7 0-512-229.2-512-512z"/><g fill="#FFF"><path d="M417.4 592.6l33.1-7.6c.7-.2 1.8-.4 3.3-.9 9.1-2.5 17-8.4 21.8-16.5 4.9-8.1 6.4-17.8 4.3-27 0-.2-.1-.4-.1-.6-1.1-4.4-3-8.6-5.6-12.3-3.7-4.7-8.3-8.6-13.5-11.6-6.1-3.5-12.6-6.5-19.2-8.9L405.1 494c-20.4-7.6-40.8-14.9-61.3-22.1-13.3-4.7-24.6-8.9-34.5-11.9-1.9-.6-3.9-1.1-5.6-1.7-11.9-3.6-20.2-5.1-27.3-5.2-4.7-.2-9.4.7-13.8 2.5-4.5 2-8.6 4.8-11.9 8.5-1.7 1.9-3.2 3.9-4.7 5.9-1.4 2.1-2.6 4.3-3.8 6.5-1.2 2.4-2.3 4.9-3.2 7.4-6.7 19.9-10.1 40.8-9.9 61.8.1 19 .7 43.4 11.1 59.9 2.5 4.2 5.9 7.9 9.9 10.8 7.4 5.1 15 5.8 22.8 6.4 11.7.8 23-2 34.3-4.6l110.2-25.6zM786.7 416.9c-9-19-21.2-36.3-36-51.2-1.9-1.9-4-3.6-6.1-5.2-2-1.5-4.1-2.9-6.2-4.2-2.2-1.2-4.5-2.3-6.8-3.3-4.6-1.8-9.5-2.6-14.4-2.4-4.7.3-9.3 1.6-13.5 3.8-6.3 3.1-13.1 8.2-22.2 16.6-1.3 1.2-2.8 2.6-4.3 4-7.5 7-15.8 15.7-25.7 25.8-15.3 15.5-30.4 31-45.4 46.8l-26.8 27.8c-4.9 5.1-9.4 10.6-13.4 16.4-3.4 4.9-5.8 10.5-7.1 16.3-.7 4.5-.6 9.1.3 13.5 0 .2.1.4.1.6 2.1 9.2 7.7 17.2 15.7 22.4 7.9 5.2 17.5 7 26.8 5.2 1.5-.2 2.6-.5 3.3-.6l143.1-33c11.3-2.6 22.7-5 32.9-10.9 6.8-3.9 13.3-7.8 17.7-15.7 2.4-4.3 3.8-9.1 4.2-14 2.2-19.4-8-41.6-16.2-58.7zM530.6 477.1c10.4-13 10.3-32.4 11.2-48.3 3.1-53 6.4-106 8.9-159 1-20.1 3.1-39.9 1.9-60.1-1-16.7-1.1-35.9-11.7-49.6-18.6-24.2-58.4-22.2-85.4-18.4-8.3 1.2-16.6 2.7-24.9 4.7-8.2 2-16.4 4.1-24.4 6.7-26 8.5-62.5 24.1-68.7 54.1-3.5 16.9 4.8 34.2 11.2 49.7 7.8 18.7 18.4 35.6 28.1 53.2 25.6 46.5 51.7 92.7 77.7 139 7.8 13.8 16.2 31.3 31.3 38.5 1 .4 2 .8 3 1.1 6.7 2.6 14.1 3 21.1 1.4.4-.1.8-.2 1.3-.3 6.5-1.8 12.3-5.3 16.9-10.2.9-.8 1.7-1.6 2.5-2.5zM518.1 619c-4.1-5.7-9.8-10-16.4-12.2-6.6-2.2-13.8-2.3-20.5-.2-1.6.5-3.1 1.2-4.6 1.9-2.3 1.2-4.5 2.5-6.5 4.1-6 4.4-11 10.2-15.6 15.9-1.2 1.5-2.2 3.4-3.6 4.7l-23 31.6c-13 17.7-25.9 35.5-38.7 53.5-8.3 11.7-15.5 21.5-21.2 30.2-1.1 1.6-2.2 3.5-3.2 4.9-6.8 10.5-10.7 18.2-12.6 25.1-1.5 4.6-2 9.4-1.4 14.1.6 5 2.3 9.7 4.9 14 1.4 2.1 2.9 4.2 4.5 6.2 1.7 1.9 3.4 3.7 5.3 5.5 2 1.9 4.1 3.6 6.3 5.2 15.9 11 33.3 19 51.6 25.1 15.2 5 31.1 8.1 47.1 9 2.7.1 5.5.1 8.2-.2 2.5-.2 5-.6 7.5-1.1 2.5-.6 4.9-1.3 7.3-2.1 4.7-1.7 8.9-4.5 12.5-8 3.4-3.4 6-7.5 7.6-11.9 2.7-6.6 4.4-15 5.5-27.5.1-1.8.4-3.9.5-5.9.9-10.4 1.3-22.5 2-36.9 1.1-22 2-43.9 2.7-65.9l1.5-39.1c.3-9 0-19-2.5-27.9-1-4.3-2.8-8.4-5.2-12.1zM778.1 680.1c-4.8-5.3-11.6-10.5-22.4-17-1.6-.9-3.4-2-5-3-8.9-5.4-19.7-11-32.3-17.9-19.3-10.6-38.7-20.9-58.2-31.2l-34.5-18.3c-1.8-.5-3.6-1.8-5.3-2.6-6.6-3.2-13.7-6.1-21-7.5-2.5-.5-5.1-.7-7.6-.8-1.7 0-3.3.1-4.9.3-6.9 1.1-13.3 4.3-18.2 9.2-5 4.9-8.2 11.3-9.4 18.1-.5 4.4-.4 8.8.5 13.1 1.7 9.2 5.8 18.2 10 26.2l18.4 34.5c10.3 19.5 20.7 38.8 31.3 58.1 6.9 12.6 12.6 23.3 17.9 32.3 1 1.7 2.2 3.5 3 5 6.5 10.7 11.7 17.5 17.1 22.3 3.4 3.3 7.6 5.8 12.1 7.4 4.7 1.6 9.8 2.1 14.7 1.6 2.5-.3 5-.7 7.5-1.3 2.4-.7 4.9-1.4 7.2-2.3 2.6-1 5-2.1 7.4-3.4 14-7.8 26.9-17.5 38.4-28.7 13.8-13.5 25.9-28.3 35.4-45.2 1.3-2.4 2.5-4.9 3.4-7.4.9-2.4 1.7-4.8 2.3-7.2.6-2.5 1-5 1.3-7.5.5-5-.1-10-1.7-14.7-1.5-4.6-4.1-8.7-7.4-12.1z"/></g></svg>