<svg xmlns="http://www.w3.org/2000/svg" viewBox="0 0 1000 1000"><g fill="none" fill-rule="evenodd"><circle cx="500" cy="500" r="500" fill="#4D6272"/><path fill="#FFF" d="M677.112 498.31v142.857c0 5.16-1.885 9.623-5.655 13.393-3.77 3.77-8.234 5.655-13.392 5.655H543.779V545.93h-76.19v114.286H353.302c-5.16 0-9.623-1.885-13.393-5.655-3.77-3.77-5.655-8.234-5.655-13.393V498.31c0-.198.05-.496.149-.893.099-.396.149-.694.149-.892l171.13-141.072 171.132 141.072c.198.396.297.992.297 1.785zm66.37-20.535l-18.453 22.023c-1.588 1.786-3.67 2.877-6.25 3.274h-.893c-2.58 0-4.663-.694-6.25-2.083L505.684 329.263 299.73 500.989c-2.38 1.587-4.762 2.282-7.143 2.083-2.58-.397-4.662-1.488-6.25-3.274l-18.452-22.023c-1.587-1.985-2.282-4.316-2.083-6.994.198-2.68 1.29-4.812 3.273-6.4l213.989-178.273c6.349-5.159 13.888-7.738 22.619-7.738 8.73 0 16.27 2.58 22.619 7.738l72.619 60.714v-58.036c0-2.777.893-5.059 2.678-6.845 1.786-1.785 4.068-2.678 6.845-2.678h57.143c2.778 0 5.06.893 6.846 2.678 1.785 1.786 2.678 4.068 2.678 6.845v121.43l65.179 54.166c1.984 1.587 3.075 3.72 3.274 6.399.198 2.678-.497 5.01-2.084 6.994z"/></g></svg>